M48
;Layer_Color=9474304
;FILE_FORMAT=4:4
METRIC,LZ
;TYPE=PLATED
T1F00S00C0.7000
T2F00S00C1.3000
T3F00S00C3.2000
%
T01
X00095Y000345
X00115
X00595
X00615
X00685Y00035
X00705
X0064Y001795
X0062
X0055Y0018
X00685Y003545
X00705
X0053Y0018
X0046
X0044
X0037Y001795
X0035
X0028
X0026
X0019
X0017
X00185Y00355
X00205
X00115Y003545
X00095
T02
X00225Y0005
X00275
X00335
X00385
X00445
X00495
X0057Y0035
X0075Y00225
Y00175
X0052Y0035
X0046
X0041
X0035
X003
X0005Y00225
Y00175
T03
X0003Y0003
X0077
Y0037
X0003
M30
