# Blender v2.93.1 OBJ File: 'Pupper.blend'
# www.blender.org
o Cube.000_Cube.003
v -0.052000 -0.265000 -0.050000
v -0.052000 -0.265000 0.037200
v -0.052000 -0.004000 -0.050000
v -0.052000 -0.004000 0.037200
v 0.052000 -0.265000 -0.050000
v 0.052000 -0.265000 0.037200
v 0.052000 -0.004000 -0.050000
v 0.052000 -0.004000 0.037200
v -0.062000 -0.265000 -0.030000
v -0.062000 -0.265000 0.017200
v -0.062000 -0.004000 0.017200
v -0.062000 -0.004000 -0.030000
v 0.062000 -0.004000 0.017200
v 0.062000 -0.004000 -0.030000
v 0.062000 -0.265000 0.017200
v 0.062000 -0.265000 -0.030000
v -0.032000 -0.259000 -0.055000
v -0.032000 -0.044000 -0.055000
v 0.032000 -0.044000 -0.055000
v 0.032000 -0.259000 -0.055000
vt 0.000000 0.000000
vt 0.000000 0.000000
vt 0.000000 0.000000
vt 0.000000 0.000000
vt 0.000000 0.000000
vt 0.000000 0.000000
vt 0.000000 0.000000
vt 0.000000 0.000000
vt 0.000000 0.000000
vt 0.000000 0.000000
vt 0.000000 0.000000
vt 0.000000 0.000000
vt 0.000000 0.000000
vt 0.000000 0.000000
vt 0.000000 0.000000
vt 0.000000 0.000000
vt 0.000000 0.000000
vt 0.000000 0.000000
vt 0.000000 0.000000
vt 0.000000 0.000000
vn 0.0000 -1.0000 0.0000
vn 0.0000 -0.6402 -0.7682
vn 0.0000 0.1240 -0.9923
vn 0.0000 1.0000 0.0000
vn 0.0000 0.0000 1.0000
vn 0.0000 0.0000 -1.0000
vn -0.2425 0.0000 -0.9701
vn -0.8944 0.0000 -0.4472
vn -1.0000 0.0000 0.0000
vn -0.8944 0.0000 0.4472
vn 0.2425 0.0000 -0.9701
vn 0.8944 0.0000 -0.4472
vn 1.0000 0.0000 0.0000
vn 0.8944 0.0000 0.4472
s off
f 10/1/1 9/2/1 1/3/1 5/4/1 16/5/1 15/6/1 6/7/1 2/8/1
f 20/9/2 5/4/2 1/3/2 17/10/2
f 3/11/3 7/12/3 19/13/3 18/14/3
f 3/11/4 12/15/4 11/16/4 4/17/4 8/18/4 13/19/4 14/20/4 7/12/4
f 6/7/5 8/18/5 4/17/5 2/8/5
f 20/9/6 17/10/6 18/14/6 19/13/6
f 18/14/7 17/10/7 1/3/7 3/11/7
f 12/15/8 3/11/8 1/3/8 9/2/8
f 9/2/9 10/1/9 11/16/9 12/15/9
f 10/1/10 2/8/10 4/17/10 11/16/10
f 5/4/11 20/9/11 19/13/11 7/12/11
f 7/12/12 14/20/12 16/5/12 5/4/12
f 14/20/13 13/19/13 15/6/13 16/5/13
f 13/19/14 8/18/14 6/7/14 15/6/14
