G04*
G04 #@! TF.GenerationSoftware,Altium Limited,Altium Designer,23.2.1 (34)*
G04*
G04 Layer_Color=65535*
%FSLAX44Y44*%
%MOMM*%
G71*
G04*
G04 #@! TF.SameCoordinates,8A9164C7-5861-4A14-A232-5D20C8E6C238*
G04*
G04*
G04 #@! TF.FilePolarity,Positive*
G04*
G01*
G75*
%ADD10C,0.2500*%
%ADD11C,0.2540*%
%ADD12C,0.2000*%
D10*
X575500Y180000D02*
G03*
X575500Y180000I-1250J0D01*
G01*
X215500Y179500D02*
G03*
X215500Y179500I-1250J0D01*
G01*
X485500Y180000D02*
G03*
X485500Y180000I-1250J0D01*
G01*
X305500Y179500D02*
G03*
X305500Y179500I-1250J0D01*
G01*
X665500D02*
G03*
X665500Y179500I-1250J0D01*
G01*
X395500D02*
G03*
X395500Y179500I-1250J0D01*
G01*
X140500Y354500D02*
G03*
X140500Y354500I-1250J0D01*
G01*
X230500Y355000D02*
G03*
X230500Y355000I-1250J0D01*
G01*
X140500Y34500D02*
G03*
X140500Y34500I-1250J0D01*
G01*
X730500Y35000D02*
G03*
X730500Y35000I-1250J0D01*
G01*
X640500Y34500D02*
G03*
X640500Y34500I-1250J0D01*
G01*
X730500Y354500D02*
G03*
X730500Y354500I-1250J0D01*
G01*
X51250Y257500D02*
G03*
X51250Y257500I-1250J0D01*
G01*
X383750Y350000D02*
G03*
X383750Y350000I-1250J0D01*
G01*
X193750Y50000D02*
G03*
X193750Y50000I-1250J0D01*
G01*
X303750D02*
G03*
X303750Y50000I-1250J0D01*
G01*
X413750D02*
G03*
X413750Y50000I-1250J0D01*
G01*
X751250Y142500D02*
G03*
X751250Y142500I-1250J0D01*
G01*
X603750Y350000D02*
G03*
X603750Y350000I-1250J0D01*
G01*
X493750D02*
G03*
X493750Y350000I-1250J0D01*
G01*
X354250Y265000D02*
G03*
X354250Y265000I-1250J0D01*
G01*
D11*
X50000Y350000D02*
Y390000D01*
X10000D02*
X50000D01*
X10000Y350000D02*
X50000D01*
X10000D02*
Y390000D01*
X790000Y350000D02*
Y390000D01*
X750000D02*
X790000D01*
X750000Y350000D02*
X790000D01*
X750000D02*
Y390000D01*
X790000Y10000D02*
Y50000D01*
X750000D02*
X790000D01*
X750000Y10000D02*
X790000D01*
X750000D02*
Y50000D01*
X50000Y10000D02*
Y50000D01*
X10000D02*
X50000D01*
X10000Y10000D02*
X50000D01*
X10000D02*
Y50000D01*
X12540Y297853D02*
Y282618D01*
X20157D01*
X22697Y285158D01*
Y295314D01*
X20157Y297853D01*
X12540D01*
X27775Y282618D02*
X32853D01*
X30314D01*
Y292775D01*
X27775D01*
X40471Y282618D02*
Y292775D01*
X48088D01*
X50628Y290236D01*
Y282618D01*
X60784Y277540D02*
X63324D01*
X65863Y280079D01*
Y292775D01*
X58245D01*
X55706Y290236D01*
Y285158D01*
X58245Y282618D01*
X65863D01*
X73480D02*
X78559D01*
X81098Y285158D01*
Y290236D01*
X78559Y292775D01*
X73480D01*
X70941Y290236D01*
Y285158D01*
X73480Y282618D01*
X101411D02*
Y297853D01*
X109029D01*
X111568Y295314D01*
Y290236D01*
X109029Y287697D01*
X101411D01*
X126803Y295314D02*
X124264Y297853D01*
X119185D01*
X116646Y295314D01*
Y285158D01*
X119185Y282618D01*
X124264D01*
X126803Y285158D01*
X131881Y297853D02*
Y282618D01*
X139499D01*
X142038Y285158D01*
Y287697D01*
X139499Y290236D01*
X131881D01*
X139499D01*
X142038Y292775D01*
Y295314D01*
X139499Y297853D01*
X131881D01*
X482304Y257383D02*
Y272617D01*
X489922D01*
X492461Y270078D01*
Y265000D01*
X489922Y262461D01*
X482304D01*
X487383D02*
X492461Y257383D01*
X507696D02*
X497539D01*
X507696Y267539D01*
Y270078D01*
X505157Y272617D01*
X500078D01*
X497539Y270078D01*
X384843Y232383D02*
Y247617D01*
X392461D01*
X395000Y245078D01*
Y240000D01*
X392461Y237461D01*
X384843D01*
X389922D02*
X395000Y232383D01*
X400078D02*
X405157D01*
X402618D01*
Y247617D01*
X400078Y245078D01*
X734909Y344850D02*
X729831D01*
X732370D01*
Y332154D01*
X729831Y329615D01*
X727292D01*
X724753Y332154D01*
X750145Y329615D02*
X739988D01*
X750145Y339772D01*
Y342311D01*
X747605Y344850D01*
X742527D01*
X739988Y342311D01*
X755223D02*
X757762Y344850D01*
X762840D01*
X765380Y342311D01*
Y332154D01*
X762840Y329615D01*
X757762D01*
X755223Y332154D01*
Y342311D01*
X541113Y72618D02*
X536035D01*
X538574D01*
Y59922D01*
X536035Y57382D01*
X533495D01*
X530956Y59922D01*
X546191Y57382D02*
X551270D01*
X548730D01*
Y72618D01*
X546191Y70078D01*
X558887Y59922D02*
X561426Y57382D01*
X566505D01*
X569044Y59922D01*
Y70078D01*
X566505Y72618D01*
X561426D01*
X558887Y70078D01*
Y67539D01*
X561426Y65000D01*
X569044D01*
X739796Y71810D02*
X734717D01*
X737256D01*
Y59114D01*
X734717Y56575D01*
X732178D01*
X729639Y59114D01*
X744874Y56575D02*
X749952D01*
X747413D01*
Y71810D01*
X744874Y69271D01*
X757570D02*
X760109Y71810D01*
X765187D01*
X767727Y69271D01*
Y66732D01*
X765187Y64193D01*
X767727Y61654D01*
Y59114D01*
X765187Y56575D01*
X760109D01*
X757570Y59114D01*
Y61654D01*
X760109Y64193D01*
X757570Y66732D01*
Y69271D01*
X760109Y64193D02*
X765187D01*
X41113Y72618D02*
X36035D01*
X38574D01*
Y59922D01*
X36035Y57382D01*
X33495D01*
X30956Y59922D01*
X46191Y57382D02*
X51270D01*
X48730D01*
Y72618D01*
X46191Y70078D01*
X58887Y72618D02*
X69044D01*
Y70078D01*
X58887Y59922D01*
Y57382D01*
X241113Y342617D02*
X236035D01*
X238574D01*
Y329922D01*
X236035Y327383D01*
X233495D01*
X230956Y329922D01*
X246191Y327383D02*
X251270D01*
X248730D01*
Y342617D01*
X246191Y340078D01*
X269044Y342617D02*
X263965Y340078D01*
X258887Y335000D01*
Y329922D01*
X261426Y327383D01*
X266505D01*
X269044Y329922D01*
Y332461D01*
X266505Y335000D01*
X258887D01*
X42637Y343165D02*
X37558D01*
X40097D01*
Y330469D01*
X37558Y327930D01*
X35019D01*
X32480Y330469D01*
X47715Y327930D02*
X52793D01*
X50254D01*
Y343165D01*
X47715Y340626D01*
X70568Y343165D02*
X60411D01*
Y335547D01*
X65489Y338086D01*
X68028D01*
X70568Y335547D01*
Y330469D01*
X68028Y327930D01*
X62950D01*
X60411Y330469D01*
X351113Y227617D02*
X346035D01*
X348574D01*
Y214922D01*
X346035Y212383D01*
X343495D01*
X340956Y214922D01*
X356191Y212383D02*
X361270D01*
X358730D01*
Y227617D01*
X356191Y225078D01*
X376505Y212383D02*
Y227617D01*
X368887Y220000D01*
X379044D01*
X621113Y227617D02*
X616035D01*
X618574D01*
Y214922D01*
X616035Y212383D01*
X613495D01*
X610956Y214922D01*
X626191Y212383D02*
X631270D01*
X628730D01*
Y227617D01*
X626191Y225078D01*
X638887D02*
X641426Y227617D01*
X646505D01*
X649044Y225078D01*
Y222539D01*
X646505Y220000D01*
X643966D01*
X646505D01*
X649044Y217461D01*
Y214922D01*
X646505Y212383D01*
X641426D01*
X638887Y214922D01*
X261113Y227617D02*
X256035D01*
X258574D01*
Y214922D01*
X256035Y212383D01*
X253495D01*
X250956Y214922D01*
X266191Y212383D02*
X271270D01*
X268730D01*
Y227617D01*
X266191Y225078D01*
X289044Y212383D02*
X278887D01*
X289044Y222539D01*
Y225078D01*
X286505Y227617D01*
X281426D01*
X278887Y225078D01*
X443864Y228189D02*
X438786D01*
X441325D01*
Y215493D01*
X438786Y212954D01*
X436246D01*
X433707Y215493D01*
X448942Y212954D02*
X454021D01*
X451482D01*
Y228189D01*
X448942Y225650D01*
X461638Y212954D02*
X466717D01*
X464178D01*
Y228189D01*
X461638Y225650D01*
X427851Y299174D02*
X422772D01*
X425312D01*
Y286478D01*
X422772Y283938D01*
X420233D01*
X417694Y286478D01*
X432929Y283938D02*
X438007D01*
X435468D01*
Y299174D01*
X432929Y296634D01*
X445625D02*
X448164Y299174D01*
X453242D01*
X455782Y296634D01*
Y286478D01*
X453242Y283938D01*
X448164D01*
X445625Y286478D01*
Y296634D01*
X177461Y227617D02*
X172383D01*
X174922D01*
Y214922D01*
X172383Y212383D01*
X169843D01*
X167304Y214922D01*
X182539D02*
X185078Y212383D01*
X190157D01*
X192696Y214922D01*
Y225078D01*
X190157Y227617D01*
X185078D01*
X182539Y225078D01*
Y222539D01*
X185078Y220000D01*
X192696D01*
X538003Y228386D02*
X532925D01*
X535464D01*
Y215690D01*
X532925Y213151D01*
X530386D01*
X527846Y215690D01*
X543081Y225847D02*
X545620Y228386D01*
X550699D01*
X553238Y225847D01*
Y223308D01*
X550699Y220769D01*
X553238Y218229D01*
Y215690D01*
X550699Y213151D01*
X545620D01*
X543081Y215690D01*
Y218229D01*
X545620Y220769D01*
X543081Y223308D01*
Y225847D01*
X545620Y220769D02*
X550699D01*
X612461Y392617D02*
X607383D01*
X609922D01*
Y379922D01*
X607383Y377383D01*
X604843D01*
X602304Y379922D01*
X617539Y392617D02*
X627696D01*
Y390078D01*
X617539Y379922D01*
Y377383D01*
X772461Y142618D02*
X767383D01*
X769922D01*
Y129922D01*
X767383Y127382D01*
X764843D01*
X762304Y129922D01*
X787696Y142618D02*
X782617Y140078D01*
X777539Y135000D01*
Y129922D01*
X780078Y127382D01*
X785157D01*
X787696Y129922D01*
Y132461D01*
X785157Y135000D01*
X777539D01*
X467385Y115940D02*
X462307D01*
X464846D01*
Y103244D01*
X462307Y100705D01*
X459768D01*
X457229Y103244D01*
X482621Y115940D02*
X472464D01*
Y108322D01*
X477542Y110861D01*
X480081D01*
X482621Y108322D01*
Y103244D01*
X480081Y100705D01*
X475003D01*
X472464Y103244D01*
X357461Y117618D02*
X352383D01*
X354922D01*
Y104922D01*
X352383Y102382D01*
X349843D01*
X347304Y104922D01*
X370157Y102382D02*
Y117618D01*
X362539Y110000D01*
X372696D01*
X245387Y115833D02*
X240308D01*
X242847D01*
Y103137D01*
X240308Y100597D01*
X237769D01*
X235230Y103137D01*
X250465Y113293D02*
X253004Y115833D01*
X258083D01*
X260622Y113293D01*
Y110754D01*
X258083Y108215D01*
X255543D01*
X258083D01*
X260622Y105676D01*
Y103137D01*
X258083Y100597D01*
X253004D01*
X250465Y103137D01*
X323052Y299721D02*
X317973D01*
X320512D01*
Y287025D01*
X317973Y284486D01*
X315434D01*
X312895Y287025D01*
X338287Y284486D02*
X328130D01*
X338287Y294643D01*
Y297182D01*
X335747Y299721D01*
X330669D01*
X328130Y297182D01*
X20000Y142618D02*
X14922D01*
X17461D01*
Y129922D01*
X14922Y127382D01*
X12383D01*
X9843Y129922D01*
X25078Y127382D02*
X30157D01*
X27618D01*
Y142618D01*
X25078Y140078D01*
X254843Y272617D02*
Y257383D01*
X262461D01*
X265000Y259922D01*
Y270078D01*
X262461Y272617D01*
X254843D01*
X270078Y257383D02*
X275157D01*
X272618D01*
Y272617D01*
X270078Y270078D01*
D12*
X510500Y208000D02*
X569500D01*
Y163000D02*
Y208000D01*
X510500Y163000D02*
X569500D01*
X510500D02*
Y208000D01*
X150500Y162500D02*
Y207500D01*
Y162500D02*
X209500D01*
Y207500D01*
X150500D02*
X209500D01*
X420500Y208000D02*
X479500D01*
Y163000D02*
Y208000D01*
X420500Y163000D02*
X479500D01*
X420500D02*
Y208000D01*
X240500Y162500D02*
Y207500D01*
Y162500D02*
X299500D01*
Y207500D01*
X240500D02*
X299500D01*
X600500D02*
X659500D01*
Y162500D02*
Y207500D01*
X600500Y162500D02*
X659500D01*
X600500D02*
Y207500D01*
X330500Y162500D02*
Y207500D01*
Y162500D02*
X389500D01*
Y207500D01*
X330500D02*
X389500D01*
X75500Y382500D02*
X134500D01*
Y337500D02*
Y382500D01*
X75500Y337500D02*
X134500D01*
X75500D02*
Y382500D01*
X165500Y338000D02*
Y383000D01*
Y338000D02*
X224500D01*
Y383000D01*
X165500D02*
X224500D01*
X75500Y62500D02*
X134500D01*
Y17500D02*
Y62500D01*
X75500Y17500D02*
X134500D01*
X75500D02*
Y62500D01*
X665500Y18000D02*
Y63000D01*
Y18000D02*
X724500D01*
Y63000D01*
X665500D02*
X724500D01*
X575500Y62500D02*
X634500D01*
Y17500D02*
Y62500D01*
X575500Y17500D02*
X634500D01*
X575500D02*
Y62500D01*
X665500Y337500D02*
Y382500D01*
Y337500D02*
X724500D01*
Y382500D01*
X665500D02*
X724500D01*
X390519Y272750D02*
X399481D01*
X390519Y257250D02*
X399481D01*
X443709Y253201D02*
X476291D01*
X443709Y276799D02*
X476291D01*
X5000Y250000D02*
X95000D01*
X5000Y150000D02*
Y250000D01*
Y150000D02*
X95000D01*
Y250000D01*
X275000Y305000D02*
X375000D01*
X275000D02*
Y395000D01*
X375000D01*
Y305000D02*
Y395000D01*
X200000Y5000D02*
Y95000D01*
Y5000D02*
X300000D01*
Y95000D01*
X200000D02*
X300000D01*
X310000D02*
X410000D01*
Y5000D02*
Y95000D01*
X310000Y5000D02*
X410000D01*
X310000D02*
Y95000D01*
X420000Y5000D02*
Y95000D01*
Y5000D02*
X520000D01*
Y95000D01*
X420000D02*
X520000D01*
X705000Y150000D02*
Y250000D01*
X795000D01*
Y150000D02*
Y250000D01*
X705000Y150000D02*
X795000D01*
X595000Y305000D02*
Y395000D01*
X495000D02*
X595000D01*
X495000Y305000D02*
Y395000D01*
Y305000D02*
X595000D01*
X385000D02*
X485000D01*
X385000D02*
Y395000D01*
X485000D01*
Y305000D02*
Y395000D01*
X292000Y250400D02*
X338000D01*
X292000Y277250D02*
Y279600D01*
Y250400D02*
Y252750D01*
Y279600D02*
X338000D01*
Y277250D02*
Y279600D01*
Y250400D02*
Y252750D01*
X707670Y261847D02*
X702338D01*
X707670Y267178D01*
Y268511D01*
X706337Y269844D01*
X703671D01*
X702338Y268511D01*
X710335D02*
X711668Y269844D01*
X714334D01*
X715667Y268511D01*
Y267178D01*
X714334Y265846D01*
X713001D01*
X714334D01*
X715667Y264513D01*
Y263180D01*
X714334Y261847D01*
X711668D01*
X710335Y263180D01*
X718333Y261847D02*
X723665Y267178D01*
X726330Y268511D02*
X727663Y269844D01*
X730329D01*
X731662Y268511D01*
Y263180D01*
X730329Y261847D01*
X727663D01*
X726330Y263180D01*
Y268511D01*
X739659Y261847D02*
X734328D01*
X739659Y267178D01*
Y268511D01*
X738326Y269844D01*
X735661D01*
X734328Y268511D01*
X742325Y261847D02*
X747657Y267178D01*
X755654Y261847D02*
X750323D01*
X755654Y267178D01*
Y268511D01*
X754321Y269844D01*
X751656D01*
X750323Y268511D01*
X758320D02*
X759653Y269844D01*
X762319D01*
X763652Y268511D01*
Y263180D01*
X762319Y261847D01*
X759653D01*
X758320Y263180D01*
Y268511D01*
X771649Y261847D02*
X766318D01*
X771649Y267178D01*
Y268511D01*
X770316Y269844D01*
X767650D01*
X766318Y268511D01*
X774315D02*
X775648Y269844D01*
X778314D01*
X779647Y268511D01*
Y267178D01*
X778314Y265846D01*
X776981D01*
X778314D01*
X779647Y264513D01*
Y263180D01*
X778314Y261847D01*
X775648D01*
X774315Y263180D01*
X664126Y278154D02*
Y286151D01*
X669458Y278154D01*
Y286151D01*
X673456Y283485D02*
X676122D01*
X677455Y282152D01*
Y278154D01*
X673456D01*
X672124Y279487D01*
X673456Y280819D01*
X677455D01*
X681454Y284818D02*
Y283485D01*
X680121D01*
X682787D01*
X681454D01*
Y279487D01*
X682787Y278154D01*
X686786Y286151D02*
Y278154D01*
Y282152D01*
X688119Y283485D01*
X690784D01*
X692117Y282152D01*
Y278154D01*
X696116Y283485D02*
X698782D01*
X700115Y282152D01*
Y278154D01*
X696116D01*
X694783Y279487D01*
X696116Y280819D01*
X700115D01*
X702780Y278154D02*
Y283485D01*
X706779D01*
X708112Y282152D01*
Y278154D01*
X724107Y286151D02*
X718775D01*
Y282152D01*
X721441D01*
X718775D01*
Y278154D01*
X730771D02*
X728106D01*
X726773Y279487D01*
Y282152D01*
X728106Y283485D01*
X730771D01*
X732104Y282152D01*
Y280819D01*
X726773D01*
X734770Y283485D02*
Y278154D01*
Y280819D01*
X736103Y282152D01*
X737436Y283485D01*
X738769D01*
X745433Y275488D02*
X746766D01*
X748099Y276821D01*
Y283485D01*
X744100D01*
X742767Y282152D01*
Y279487D01*
X744100Y278154D01*
X748099D01*
X750765Y283485D02*
Y279487D01*
X752098Y278154D01*
X756096D01*
Y283485D01*
X758762Y278154D02*
X762761D01*
X764094Y279487D01*
X762761Y280819D01*
X760095D01*
X758762Y282152D01*
X760095Y283485D01*
X764094D01*
X768093Y278154D02*
X770759D01*
X772091Y279487D01*
Y282152D01*
X770759Y283485D01*
X768093D01*
X766760Y282152D01*
Y279487D01*
X768093Y278154D01*
X774757D02*
Y283485D01*
X778756D01*
X780089Y282152D01*
Y278154D01*
X652000Y292000D02*
Y297332D01*
X654666Y299997D01*
X657332Y297332D01*
Y292000D01*
Y295999D01*
X652000D01*
X659997Y292000D02*
X662663D01*
X661330D01*
Y299997D01*
X659997D01*
X670661Y292000D02*
X667995D01*
X666662Y293333D01*
Y295999D01*
X667995Y297332D01*
X670661D01*
X671994Y295999D01*
Y294666D01*
X666662D01*
X674659Y297332D02*
X679991Y292000D01*
X677325Y294666D01*
X679991Y297332D01*
X674659Y292000D01*
X683990Y297332D02*
X686656D01*
X687988Y295999D01*
Y292000D01*
X683990D01*
X682657Y293333D01*
X683990Y294666D01*
X687988D01*
X690654Y292000D02*
Y297332D01*
X694653D01*
X695986Y295999D01*
Y292000D01*
X703983Y299997D02*
Y292000D01*
X699985D01*
X698652Y293333D01*
Y295999D01*
X699985Y297332D01*
X703983D01*
X710648Y292000D02*
X707982D01*
X706649Y293333D01*
Y295999D01*
X707982Y297332D01*
X710648D01*
X711981Y295999D01*
Y294666D01*
X706649D01*
X714646Y297332D02*
Y292000D01*
Y294666D01*
X715979Y295999D01*
X717312Y297332D01*
X718645D01*
X735973Y298664D02*
X734640Y299997D01*
X731974D01*
X730641Y298664D01*
Y293333D01*
X731974Y292000D01*
X734640D01*
X735973Y293333D01*
X739972Y297332D02*
X742637D01*
X743970Y295999D01*
Y292000D01*
X739972D01*
X738639Y293333D01*
X739972Y294666D01*
X743970D01*
X746636Y292000D02*
X749302D01*
X747969D01*
Y299997D01*
X746636D01*
X753301Y297332D02*
X755966Y292000D01*
X758632Y297332D01*
X765297Y292000D02*
X762631D01*
X761298Y293333D01*
Y295999D01*
X762631Y297332D01*
X765297D01*
X766630Y295999D01*
Y294666D01*
X761298D01*
X769296Y297332D02*
Y292000D01*
Y294666D01*
X770628Y295999D01*
X771961Y297332D01*
X773294D01*
X778626Y298664D02*
Y297332D01*
X777293D01*
X779959D01*
X778626D01*
Y293333D01*
X779959Y292000D01*
X12274Y260663D02*
Y272659D01*
X18272D01*
X20271Y270660D01*
Y266661D01*
X18272Y264662D01*
X12274D01*
X16272D02*
X20271Y260663D01*
X30268D02*
X26269D01*
X24270Y262662D01*
Y266661D01*
X26269Y268660D01*
X30268D01*
X32267Y266661D01*
Y264662D01*
X24270D01*
X36266Y268660D02*
X40265Y260663D01*
X44263Y268660D01*
X60258Y260663D02*
X64257D01*
X62257D01*
Y272659D01*
X60258Y270660D01*
X70255Y260663D02*
Y262662D01*
X72254D01*
Y260663D01*
X70255D01*
X80252Y270660D02*
X82251Y272659D01*
X86250D01*
X88249Y270660D01*
Y262662D01*
X86250Y260663D01*
X82251D01*
X80252Y262662D01*
Y270660D01*
X410716Y296010D02*
X408717Y298010D01*
X404718D01*
X402719Y296010D01*
Y288013D01*
X404718Y286014D01*
X408717D01*
X410716Y288013D01*
X702000Y327000D02*
X709997D01*
X202000D02*
X209997D01*
X112000D02*
X119997D01*
X112000Y72000D02*
X119997D01*
X702000D02*
X709997D01*
X612000D02*
X619997D01*
X187000Y152000D02*
X194997D01*
X277000D02*
X284997D01*
X367000D02*
X374997D01*
X457000D02*
X464997D01*
X547000D02*
X554997D01*
X687000Y172000D02*
X694997D01*
X637000Y152000D02*
X644997D01*
X567000Y292000D02*
X574997D01*
X667000Y222000D02*
X670999D01*
X668999D01*
Y233996D01*
X667000Y231997D01*
X684994Y222000D02*
X676997D01*
X684994Y229997D01*
Y231997D01*
X682995Y233996D01*
X678996D01*
X676997Y231997D01*
X688993Y233996D02*
Y225999D01*
X692992Y222000D01*
X696990Y225999D01*
Y233996D01*
X623000Y127000D02*
Y130999D01*
Y128999D01*
X611004D01*
X613003Y127000D01*
X623000Y144994D02*
Y136997D01*
X615003Y144994D01*
X613003D01*
X611004Y142995D01*
Y138996D01*
X613003Y136997D01*
X611004Y148993D02*
X619001D01*
X623000Y152992D01*
X619001Y156990D01*
X611004D01*
X533000Y127000D02*
Y130999D01*
Y128999D01*
X521004D01*
X523003Y127000D01*
X533000Y144994D02*
Y136997D01*
X525003Y144994D01*
X523003D01*
X521004Y142995D01*
Y138996D01*
X523003Y136997D01*
X521004Y148993D02*
X529001D01*
X533000Y152992D01*
X529001Y156990D01*
X521004D01*
X675968Y75574D02*
Y67576D01*
X681966D01*
X679967Y71575D01*
Y73574D01*
X681966Y75574D01*
X685965D01*
X687965Y73574D01*
Y69575D01*
X685965Y67576D01*
X675968Y79572D02*
X683966D01*
X687965Y83571D01*
X683966Y87570D01*
X675968D01*
X585971Y75073D02*
Y67076D01*
X591969D01*
X589970Y71075D01*
Y73074D01*
X591969Y75073D01*
X595968D01*
X597967Y73074D01*
Y69075D01*
X595968Y67076D01*
X585971Y79072D02*
X593969D01*
X597967Y83071D01*
X593969Y87069D01*
X585971D01*
X86201Y75720D02*
Y67723D01*
X92199D01*
X90200Y71721D01*
Y73721D01*
X92199Y75720D01*
X96198D01*
X98197Y73721D01*
Y69722D01*
X96198Y67723D01*
X86201Y79719D02*
X94199D01*
X98197Y83717D01*
X94199Y87716D01*
X86201D01*
X86004Y319997D02*
Y312000D01*
X92002D01*
X90003Y315999D01*
Y317998D01*
X92002Y319997D01*
X96001D01*
X98000Y317998D01*
Y313999D01*
X96001Y312000D01*
X86004Y323996D02*
X94001D01*
X98000Y327995D01*
X94001Y331993D01*
X86004D01*
X176004Y319997D02*
Y312000D01*
X182002D01*
X180003Y315999D01*
Y317998D01*
X182002Y319997D01*
X186001D01*
X188000Y317998D01*
Y313999D01*
X186001Y312000D01*
X176004Y323996D02*
X184001D01*
X188000Y327995D01*
X184001Y331993D01*
X176004D01*
X161004Y144997D02*
Y137000D01*
X167002D01*
X165003Y140999D01*
Y142998D01*
X167002Y144997D01*
X171001D01*
X173000Y142998D01*
Y138999D01*
X171001Y137000D01*
X161004Y148996D02*
X169001D01*
X173000Y152995D01*
X169001Y156994D01*
X161004D01*
X251004Y144997D02*
Y137000D01*
X257002D01*
X255003Y140999D01*
Y142998D01*
X257002Y144997D01*
X261001D01*
X263000Y142998D01*
Y138999D01*
X261001Y137000D01*
X251004Y148996D02*
X259001D01*
X263000Y152995D01*
X259001Y156994D01*
X251004D01*
X341004Y144997D02*
Y137000D01*
X347002D01*
X345003Y140999D01*
Y142998D01*
X347002Y144997D01*
X351001D01*
X353000Y142998D01*
Y138999D01*
X351001Y137000D01*
X341004Y148996D02*
X349001D01*
X353000Y152995D01*
X349001Y156994D01*
X341004D01*
X443000Y127000D02*
Y130999D01*
Y128999D01*
X431004D01*
X433003Y127000D01*
X443000Y144994D02*
Y136997D01*
X435003Y144994D01*
X433003D01*
X431004Y142995D01*
Y138996D01*
X433003Y136997D01*
X431004Y148993D02*
X439001D01*
X443000Y152992D01*
X439001Y156990D01*
X431004D01*
X676004Y319997D02*
Y312000D01*
X682002D01*
X680003Y315999D01*
Y317998D01*
X682002Y319997D01*
X686001D01*
X688000Y317998D01*
Y313999D01*
X686001Y312000D01*
X676004Y323996D02*
X684001D01*
X688000Y327995D01*
X684001Y331993D01*
X676004D01*
X514997Y298996D02*
X507000D01*
Y292998D01*
X510999Y294997D01*
X512998D01*
X514997Y292998D01*
Y288999D01*
X512998Y287000D01*
X508999D01*
X507000Y288999D01*
X518996Y298996D02*
Y290999D01*
X522995Y287000D01*
X526993Y290999D01*
Y298996D01*
X467000Y292000D02*
X474997D01*
X352000D02*
X359997D01*
X441029Y105745D02*
X449027D01*
X330508Y107046D02*
X338505D01*
X221405Y106141D02*
X229403D01*
X102000Y227000D02*
X109997D01*
X292000Y290999D02*
X299997D01*
X295999Y294997D02*
Y287000D01*
X490233Y105624D02*
X498231D01*
X494232Y109623D02*
Y101626D01*
X380758Y107197D02*
X388755D01*
X384757Y111195D02*
Y103198D01*
X270750Y106291D02*
X278748D01*
X274749Y110290D02*
Y102293D01*
X102000Y175999D02*
X109997D01*
X105999Y179997D02*
Y172000D01*
M02*
