G04*
G04 #@! TF.GenerationSoftware,Altium Limited,Altium Designer,23.2.1 (34)*
G04*
G04 Layer_Physical_Order=2*
G04 Layer_Color=16711680*
%FSLAX44Y44*%
%MOMM*%
G71*
G04*
G04 #@! TF.SameCoordinates,8A9164C7-5861-4A14-A232-5D20C8E6C238*
G04*
G04*
G04 #@! TF.FilePolarity,Positive*
G04*
G01*
G75*
%ADD17C,1.2000*%
%ADD18R,1.2000X1.2000*%
%ADD19C,2.0000*%
%ADD20R,2.0000X2.0000*%
%ADD21R,2.0000X2.0000*%
%ADD24C,1.0000*%
G36*
X766771Y388730D02*
X764458Y388270D01*
X761000Y386838D01*
X757888Y384758D01*
X755242Y382112D01*
X753163Y379000D01*
X751730Y375542D01*
X751000Y371871D01*
Y368129D01*
X751730Y364458D01*
X753163Y361000D01*
X755242Y357888D01*
X757888Y355242D01*
X761000Y353162D01*
X764458Y351730D01*
X768129Y351000D01*
X771871D01*
X775542Y351730D01*
X779000Y353162D01*
X782112Y355242D01*
X784758Y357888D01*
X786838Y361000D01*
X788270Y364458D01*
X788730Y366771D01*
X790000Y366646D01*
Y33354D01*
X788730Y33229D01*
X788270Y35542D01*
X786838Y39000D01*
X784758Y42112D01*
X782112Y44758D01*
X779000Y46838D01*
X775542Y48270D01*
X771871Y49000D01*
X768129D01*
X764458Y48270D01*
X761000Y46838D01*
X757888Y44758D01*
X755242Y42112D01*
X753163Y39000D01*
X751730Y35542D01*
X751000Y31871D01*
Y28129D01*
X751730Y24458D01*
X753163Y21000D01*
X755242Y17888D01*
X757888Y15242D01*
X761000Y13162D01*
X764458Y11730D01*
X766771Y11270D01*
X766646Y10000D01*
X33354D01*
X33229Y11270D01*
X35542Y11730D01*
X39000Y13162D01*
X42112Y15242D01*
X44758Y17888D01*
X46838Y21000D01*
X48270Y24458D01*
X49000Y28129D01*
Y31871D01*
X48270Y35542D01*
X46838Y39000D01*
X44758Y42112D01*
X42112Y44758D01*
X39000Y46838D01*
X35542Y48270D01*
X31871Y49000D01*
X28129D01*
X24458Y48270D01*
X21000Y46838D01*
X17888Y44758D01*
X15242Y42112D01*
X13162Y39000D01*
X11730Y35542D01*
X11270Y33229D01*
X10000Y33354D01*
Y366646D01*
X11270Y366771D01*
X11730Y364458D01*
X13162Y361000D01*
X15242Y357888D01*
X17888Y355242D01*
X21000Y353162D01*
X24458Y351730D01*
X28129Y351000D01*
X31871D01*
X35542Y351730D01*
X39000Y353162D01*
X42112Y355242D01*
X44758Y357888D01*
X46838Y361000D01*
X48270Y364458D01*
X49000Y368129D01*
Y371871D01*
X48270Y375542D01*
X46838Y379000D01*
X44758Y382112D01*
X42112Y384758D01*
X39000Y386838D01*
X35542Y388270D01*
X33229Y388730D01*
X33354Y390000D01*
X766646D01*
X766771Y388730D01*
D02*
G37*
%LPC*%
G36*
X213540Y363540D02*
X206270D01*
Y356270D01*
X213540D01*
Y363540D01*
D02*
G37*
G36*
X203730D02*
X196460D01*
Y356270D01*
X203730D01*
Y363540D01*
D02*
G37*
G36*
X713540Y363040D02*
X706270D01*
Y355770D01*
X713540D01*
Y363040D01*
D02*
G37*
G36*
X703730D02*
X696460D01*
Y355770D01*
X703730D01*
Y363040D01*
D02*
G37*
G36*
X123540D02*
X116270D01*
Y355770D01*
X123540D01*
Y363040D01*
D02*
G37*
G36*
X113730D02*
X106460D01*
Y355770D01*
X113730D01*
Y363040D01*
D02*
G37*
G36*
X362540Y362540D02*
X351270D01*
Y351270D01*
X362540D01*
Y362540D01*
D02*
G37*
G36*
X582540D02*
X571270D01*
Y351270D01*
X582540D01*
Y362540D01*
D02*
G37*
G36*
X472540D02*
X461270D01*
Y351270D01*
X472540D01*
Y362540D01*
D02*
G37*
G36*
X568730D02*
X557460D01*
Y351270D01*
X568730D01*
Y362540D01*
D02*
G37*
G36*
X458730D02*
X447460D01*
Y351270D01*
X458730D01*
Y362540D01*
D02*
G37*
G36*
X348730D02*
X337460D01*
Y351270D01*
X348730D01*
Y362540D01*
D02*
G37*
G36*
X213540Y353730D02*
X206270D01*
Y346460D01*
X213540D01*
Y353730D01*
D02*
G37*
G36*
X203730D02*
X196460D01*
Y346460D01*
X203730D01*
Y353730D01*
D02*
G37*
G36*
X186185Y364000D02*
X183815D01*
X181526Y363387D01*
X179474Y362202D01*
X177798Y360526D01*
X176613Y358474D01*
X176000Y356185D01*
Y353815D01*
X176613Y351526D01*
X177798Y349474D01*
X179474Y347798D01*
X181526Y346613D01*
X183815Y346000D01*
X186185D01*
X188474Y346613D01*
X190526Y347798D01*
X192202Y349474D01*
X193387Y351526D01*
X194000Y353815D01*
Y356185D01*
X193387Y358474D01*
X192202Y360526D01*
X190526Y362202D01*
X188474Y363387D01*
X186185Y364000D01*
D02*
G37*
G36*
X713540Y353230D02*
X706270D01*
Y345960D01*
X713540D01*
Y353230D01*
D02*
G37*
G36*
X703730D02*
X696460D01*
Y345960D01*
X703730D01*
Y353230D01*
D02*
G37*
G36*
X123540D02*
X116270D01*
Y345960D01*
X123540D01*
Y353230D01*
D02*
G37*
G36*
X113730D02*
X106460D01*
Y345960D01*
X113730D01*
Y353230D01*
D02*
G37*
G36*
X686185Y363500D02*
X683815D01*
X681526Y362887D01*
X679474Y361702D01*
X677798Y360026D01*
X676613Y357974D01*
X676000Y355685D01*
Y353315D01*
X676613Y351026D01*
X677798Y348974D01*
X679474Y347298D01*
X681526Y346113D01*
X683815Y345500D01*
X686185D01*
X688474Y346113D01*
X690526Y347298D01*
X692202Y348974D01*
X693387Y351026D01*
X694000Y353315D01*
Y355685D01*
X693387Y357974D01*
X692202Y360026D01*
X690526Y361702D01*
X688474Y362887D01*
X686185Y363500D01*
D02*
G37*
G36*
X96185D02*
X93815D01*
X91526Y362887D01*
X89474Y361702D01*
X87798Y360026D01*
X86613Y357974D01*
X86000Y355685D01*
Y353315D01*
X86613Y351026D01*
X87798Y348974D01*
X89474Y347298D01*
X91526Y346113D01*
X93815Y345500D01*
X96185D01*
X98474Y346113D01*
X100526Y347298D01*
X102202Y348974D01*
X103387Y351026D01*
X104000Y353315D01*
Y355685D01*
X103387Y357974D01*
X102202Y360026D01*
X100526Y361702D01*
X98474Y362887D01*
X96185Y363500D01*
D02*
G37*
G36*
X582540Y348730D02*
X571270D01*
Y337460D01*
X582540D01*
Y348730D01*
D02*
G37*
G36*
X568730D02*
X557460D01*
Y337460D01*
X568730D01*
Y348730D01*
D02*
G37*
G36*
X472540D02*
X461270D01*
Y337460D01*
X472540D01*
Y348730D01*
D02*
G37*
G36*
X458730D02*
X447460D01*
Y337460D01*
X458730D01*
Y348730D01*
D02*
G37*
G36*
X362540D02*
X351270D01*
Y337460D01*
X362540D01*
Y348730D01*
D02*
G37*
G36*
X348730D02*
X337460D01*
Y337460D01*
X348730D01*
Y348730D01*
D02*
G37*
G36*
X521712Y363000D02*
X518288D01*
X514982Y362114D01*
X512018Y360403D01*
X509597Y357982D01*
X507886Y355018D01*
X507000Y351712D01*
Y348288D01*
X507886Y344982D01*
X509597Y342018D01*
X512018Y339597D01*
X514982Y337886D01*
X518288Y337000D01*
X521712D01*
X525018Y337886D01*
X527982Y339597D01*
X530403Y342018D01*
X532114Y344982D01*
X533000Y348288D01*
Y351712D01*
X532114Y355018D01*
X530403Y357982D01*
X527982Y360403D01*
X525018Y362114D01*
X521712Y363000D01*
D02*
G37*
G36*
X411712D02*
X408288D01*
X404982Y362114D01*
X402018Y360403D01*
X399597Y357982D01*
X397886Y355018D01*
X397000Y351712D01*
Y348288D01*
X397886Y344982D01*
X399597Y342018D01*
X402018Y339597D01*
X404982Y337886D01*
X408288Y337000D01*
X411712D01*
X415018Y337886D01*
X417982Y339597D01*
X420403Y342018D01*
X422114Y344982D01*
X423000Y348288D01*
Y351712D01*
X422114Y355018D01*
X420403Y357982D01*
X417982Y360403D01*
X415018Y362114D01*
X411712Y363000D01*
D02*
G37*
G36*
X301712D02*
X298288D01*
X294982Y362114D01*
X292018Y360403D01*
X289597Y357982D01*
X287886Y355018D01*
X287000Y351712D01*
Y348288D01*
X287886Y344982D01*
X289597Y342018D01*
X292018Y339597D01*
X294982Y337886D01*
X298288Y337000D01*
X301712D01*
X305018Y337886D01*
X307982Y339597D01*
X310403Y342018D01*
X312114Y344982D01*
X313000Y348288D01*
Y351712D01*
X312114Y355018D01*
X310403Y357982D01*
X307982Y360403D01*
X305018Y362114D01*
X301712Y363000D01*
D02*
G37*
G36*
X62540Y237540D02*
X51270D01*
Y226270D01*
X62540D01*
Y237540D01*
D02*
G37*
G36*
X48730D02*
X37460D01*
Y226270D01*
X48730D01*
Y237540D01*
D02*
G37*
G36*
X62540Y223730D02*
X51270D01*
Y212460D01*
X62540D01*
Y223730D01*
D02*
G37*
G36*
X48730D02*
X37460D01*
Y212460D01*
X48730D01*
Y223730D01*
D02*
G37*
G36*
X751712Y238000D02*
X748288D01*
X744982Y237114D01*
X742018Y235403D01*
X739597Y232982D01*
X737886Y230018D01*
X737000Y226712D01*
Y223288D01*
X737886Y219982D01*
X739597Y217018D01*
X742018Y214597D01*
X744982Y212886D01*
X748288Y212000D01*
X751712D01*
X755018Y212886D01*
X757982Y214597D01*
X760403Y217018D01*
X762114Y219982D01*
X763000Y223288D01*
Y226712D01*
X762114Y230018D01*
X760403Y232982D01*
X757982Y235403D01*
X755018Y237114D01*
X751712Y238000D01*
D02*
G37*
G36*
X558540Y188540D02*
X551270D01*
Y181270D01*
X558540D01*
Y188540D01*
D02*
G37*
G36*
X548730D02*
X541460D01*
Y181270D01*
X548730D01*
Y188540D01*
D02*
G37*
G36*
X468540D02*
X461270D01*
Y181270D01*
X468540D01*
Y188540D01*
D02*
G37*
G36*
X458730D02*
X451460D01*
Y181270D01*
X458730D01*
Y188540D01*
D02*
G37*
G36*
X648540Y188040D02*
X641270D01*
Y180770D01*
X648540D01*
Y188040D01*
D02*
G37*
G36*
X638730D02*
X631460D01*
Y180770D01*
X638730D01*
Y188040D01*
D02*
G37*
G36*
X378540D02*
X371270D01*
Y180770D01*
X378540D01*
Y188040D01*
D02*
G37*
G36*
X368730D02*
X361460D01*
Y180770D01*
X368730D01*
Y188040D01*
D02*
G37*
G36*
X288540D02*
X281270D01*
Y180770D01*
X288540D01*
Y188040D01*
D02*
G37*
G36*
X278730D02*
X271460D01*
Y180770D01*
X278730D01*
Y188040D01*
D02*
G37*
G36*
X198540D02*
X191270D01*
Y180770D01*
X198540D01*
Y188040D01*
D02*
G37*
G36*
X188730D02*
X181460D01*
Y180770D01*
X188730D01*
Y188040D01*
D02*
G37*
G36*
X762540Y187540D02*
X751270D01*
Y176270D01*
X762540D01*
Y187540D01*
D02*
G37*
G36*
X748730D02*
X737460D01*
Y176270D01*
X748730D01*
Y187540D01*
D02*
G37*
G36*
X558540Y178730D02*
X551270D01*
Y171460D01*
X558540D01*
Y178730D01*
D02*
G37*
G36*
X548730D02*
X541460D01*
Y171460D01*
X548730D01*
Y178730D01*
D02*
G37*
G36*
X468540D02*
X461270D01*
Y171460D01*
X468540D01*
Y178730D01*
D02*
G37*
G36*
X458730D02*
X451460D01*
Y171460D01*
X458730D01*
Y178730D01*
D02*
G37*
G36*
X531185Y189000D02*
X528815D01*
X526526Y188387D01*
X524474Y187202D01*
X522798Y185526D01*
X521613Y183474D01*
X521000Y181185D01*
Y178815D01*
X521613Y176526D01*
X522798Y174474D01*
X524474Y172798D01*
X526526Y171613D01*
X528815Y171000D01*
X531185D01*
X533474Y171613D01*
X535526Y172798D01*
X537202Y174474D01*
X538387Y176526D01*
X539000Y178815D01*
Y181185D01*
X538387Y183474D01*
X537202Y185526D01*
X535526Y187202D01*
X533474Y188387D01*
X531185Y189000D01*
D02*
G37*
G36*
X441185D02*
X438815D01*
X436526Y188387D01*
X434474Y187202D01*
X432798Y185526D01*
X431613Y183474D01*
X431000Y181185D01*
Y178815D01*
X431613Y176526D01*
X432798Y174474D01*
X434474Y172798D01*
X436526Y171613D01*
X438815Y171000D01*
X441185D01*
X443474Y171613D01*
X445526Y172798D01*
X447202Y174474D01*
X448387Y176526D01*
X449000Y178815D01*
Y181185D01*
X448387Y183474D01*
X447202Y185526D01*
X445526Y187202D01*
X443474Y188387D01*
X441185Y189000D01*
D02*
G37*
G36*
X648540Y178230D02*
X641270D01*
Y170960D01*
X648540D01*
Y178230D01*
D02*
G37*
G36*
X638730D02*
X631460D01*
Y170960D01*
X638730D01*
Y178230D01*
D02*
G37*
G36*
X378540D02*
X371270D01*
Y170960D01*
X378540D01*
Y178230D01*
D02*
G37*
G36*
X368730D02*
X361460D01*
Y170960D01*
X368730D01*
Y178230D01*
D02*
G37*
G36*
X288540D02*
X281270D01*
Y170960D01*
X288540D01*
Y178230D01*
D02*
G37*
G36*
X278730D02*
X271460D01*
Y170960D01*
X278730D01*
Y178230D01*
D02*
G37*
G36*
X198540D02*
X191270D01*
Y170960D01*
X198540D01*
Y178230D01*
D02*
G37*
G36*
X188730D02*
X181460D01*
Y170960D01*
X188730D01*
Y178230D01*
D02*
G37*
G36*
X621185Y188500D02*
X618815D01*
X616526Y187887D01*
X614474Y186702D01*
X612798Y185026D01*
X611613Y182974D01*
X611000Y180685D01*
Y178315D01*
X611613Y176026D01*
X612798Y173974D01*
X614474Y172298D01*
X616526Y171113D01*
X618815Y170500D01*
X621185D01*
X623474Y171113D01*
X625526Y172298D01*
X627202Y173974D01*
X628387Y176026D01*
X629000Y178315D01*
Y180685D01*
X628387Y182974D01*
X627202Y185026D01*
X625526Y186702D01*
X623474Y187887D01*
X621185Y188500D01*
D02*
G37*
G36*
X351185D02*
X348815D01*
X346526Y187887D01*
X344474Y186702D01*
X342798Y185026D01*
X341613Y182974D01*
X341000Y180685D01*
Y178315D01*
X341613Y176026D01*
X342798Y173974D01*
X344474Y172298D01*
X346526Y171113D01*
X348815Y170500D01*
X351185D01*
X353474Y171113D01*
X355526Y172298D01*
X357202Y173974D01*
X358387Y176026D01*
X359000Y178315D01*
Y180685D01*
X358387Y182974D01*
X357202Y185026D01*
X355526Y186702D01*
X353474Y187887D01*
X351185Y188500D01*
D02*
G37*
G36*
X261185D02*
X258815D01*
X256526Y187887D01*
X254474Y186702D01*
X252798Y185026D01*
X251613Y182974D01*
X251000Y180685D01*
Y178315D01*
X251613Y176026D01*
X252798Y173974D01*
X254474Y172298D01*
X256526Y171113D01*
X258815Y170500D01*
X261185D01*
X263474Y171113D01*
X265526Y172298D01*
X267202Y173974D01*
X268387Y176026D01*
X269000Y178315D01*
Y180685D01*
X268387Y182974D01*
X267202Y185026D01*
X265526Y186702D01*
X263474Y187887D01*
X261185Y188500D01*
D02*
G37*
G36*
X171185D02*
X168815D01*
X166526Y187887D01*
X164474Y186702D01*
X162798Y185026D01*
X161613Y182974D01*
X161000Y180685D01*
Y178315D01*
X161613Y176026D01*
X162798Y173974D01*
X164474Y172298D01*
X166526Y171113D01*
X168815Y170500D01*
X171185D01*
X173474Y171113D01*
X175526Y172298D01*
X177202Y173974D01*
X178387Y176026D01*
X179000Y178315D01*
Y180685D01*
X178387Y182974D01*
X177202Y185026D01*
X175526Y186702D01*
X173474Y187887D01*
X171185Y188500D01*
D02*
G37*
G36*
X762540Y173730D02*
X751270D01*
Y162460D01*
X762540D01*
Y173730D01*
D02*
G37*
G36*
X748730D02*
X737460D01*
Y162460D01*
X748730D01*
Y173730D01*
D02*
G37*
G36*
X51712Y188000D02*
X48288D01*
X44982Y187114D01*
X42018Y185403D01*
X39597Y182982D01*
X37886Y180018D01*
X37000Y176712D01*
Y173288D01*
X37886Y169982D01*
X39597Y167018D01*
X42018Y164597D01*
X44982Y162886D01*
X48288Y162000D01*
X51712D01*
X55018Y162886D01*
X57982Y164597D01*
X60403Y167018D01*
X62114Y169982D01*
X63000Y173288D01*
Y176712D01*
X62114Y180018D01*
X60403Y182982D01*
X57982Y185403D01*
X55018Y187114D01*
X51712Y188000D01*
D02*
G37*
G36*
X457540Y62540D02*
X446270D01*
Y51270D01*
X457540D01*
Y62540D01*
D02*
G37*
G36*
X443730D02*
X432460D01*
Y51270D01*
X443730D01*
Y62540D01*
D02*
G37*
G36*
X347540D02*
X336270D01*
Y51270D01*
X347540D01*
Y62540D01*
D02*
G37*
G36*
X333730D02*
X322460D01*
Y51270D01*
X333730D01*
Y62540D01*
D02*
G37*
G36*
X237540D02*
X226270D01*
Y51270D01*
X237540D01*
Y62540D01*
D02*
G37*
G36*
X223730D02*
X212460D01*
Y51270D01*
X223730D01*
Y62540D01*
D02*
G37*
G36*
X457540Y48730D02*
X446270D01*
Y37460D01*
X457540D01*
Y48730D01*
D02*
G37*
G36*
X443730D02*
X432460D01*
Y37460D01*
X443730D01*
Y48730D01*
D02*
G37*
G36*
X347540D02*
X336270D01*
Y37460D01*
X347540D01*
Y48730D01*
D02*
G37*
G36*
X333730D02*
X322460D01*
Y37460D01*
X333730D01*
Y48730D01*
D02*
G37*
G36*
X237540D02*
X226270D01*
Y37460D01*
X237540D01*
Y48730D01*
D02*
G37*
G36*
X223730D02*
X212460D01*
Y37460D01*
X223730D01*
Y48730D01*
D02*
G37*
G36*
X496712Y63000D02*
X493288D01*
X489982Y62114D01*
X487018Y60403D01*
X484597Y57982D01*
X482886Y55018D01*
X482000Y51712D01*
Y48288D01*
X482886Y44982D01*
X484597Y42018D01*
X487018Y39597D01*
X489982Y37886D01*
X493288Y37000D01*
X496712D01*
X500018Y37886D01*
X502982Y39597D01*
X505403Y42018D01*
X507114Y44982D01*
X508000Y48288D01*
Y51712D01*
X507114Y55018D01*
X505403Y57982D01*
X502982Y60403D01*
X500018Y62114D01*
X496712Y63000D01*
D02*
G37*
G36*
X386712D02*
X383288D01*
X379982Y62114D01*
X377018Y60403D01*
X374597Y57982D01*
X372886Y55018D01*
X372000Y51712D01*
Y48288D01*
X372886Y44982D01*
X374597Y42018D01*
X377018Y39597D01*
X379982Y37886D01*
X383288Y37000D01*
X386712D01*
X390018Y37886D01*
X392982Y39597D01*
X395403Y42018D01*
X397114Y44982D01*
X398000Y48288D01*
Y51712D01*
X397114Y55018D01*
X395403Y57982D01*
X392982Y60403D01*
X390018Y62114D01*
X386712Y63000D01*
D02*
G37*
G36*
X276712D02*
X273288D01*
X269982Y62114D01*
X267018Y60403D01*
X264597Y57982D01*
X262886Y55018D01*
X262000Y51712D01*
Y48288D01*
X262886Y44982D01*
X264597Y42018D01*
X267018Y39597D01*
X269982Y37886D01*
X273288Y37000D01*
X276712D01*
X280018Y37886D01*
X282982Y39597D01*
X285403Y42018D01*
X287114Y44982D01*
X288000Y48288D01*
Y51712D01*
X287114Y55018D01*
X285403Y57982D01*
X282982Y60403D01*
X280018Y62114D01*
X276712Y63000D01*
D02*
G37*
G36*
X713540Y43540D02*
X706270D01*
Y36270D01*
X713540D01*
Y43540D01*
D02*
G37*
G36*
X703730D02*
X696460D01*
Y36270D01*
X703730D01*
Y43540D01*
D02*
G37*
G36*
X623540Y43040D02*
X616270D01*
Y35770D01*
X623540D01*
Y43040D01*
D02*
G37*
G36*
X613730D02*
X606460D01*
Y35770D01*
X613730D01*
Y43040D01*
D02*
G37*
G36*
X123540D02*
X116270D01*
Y35770D01*
X123540D01*
Y43040D01*
D02*
G37*
G36*
X113730D02*
X106460D01*
Y35770D01*
X113730D01*
Y43040D01*
D02*
G37*
G36*
X713540Y33730D02*
X706270D01*
Y26460D01*
X713540D01*
Y33730D01*
D02*
G37*
G36*
X703730D02*
X696460D01*
Y26460D01*
X703730D01*
Y33730D01*
D02*
G37*
G36*
X686185Y44000D02*
X683815D01*
X681526Y43387D01*
X679474Y42202D01*
X677798Y40526D01*
X676613Y38474D01*
X676000Y36185D01*
Y33815D01*
X676613Y31526D01*
X677798Y29474D01*
X679474Y27798D01*
X681526Y26613D01*
X683815Y26000D01*
X686185D01*
X688474Y26613D01*
X690526Y27798D01*
X692202Y29474D01*
X693387Y31526D01*
X694000Y33815D01*
Y36185D01*
X693387Y38474D01*
X692202Y40526D01*
X690526Y42202D01*
X688474Y43387D01*
X686185Y44000D01*
D02*
G37*
G36*
X623540Y33230D02*
X616270D01*
Y25960D01*
X623540D01*
Y33230D01*
D02*
G37*
G36*
X613730D02*
X606460D01*
Y25960D01*
X613730D01*
Y33230D01*
D02*
G37*
G36*
X123540D02*
X116270D01*
Y25960D01*
X123540D01*
Y33230D01*
D02*
G37*
G36*
X113730D02*
X106460D01*
Y25960D01*
X113730D01*
Y33230D01*
D02*
G37*
G36*
X596185Y43500D02*
X593815D01*
X591526Y42887D01*
X589474Y41702D01*
X587798Y40026D01*
X586613Y37974D01*
X586000Y35685D01*
Y33315D01*
X586613Y31026D01*
X587798Y28974D01*
X589474Y27298D01*
X591526Y26113D01*
X593815Y25500D01*
X596185D01*
X598474Y26113D01*
X600526Y27298D01*
X602202Y28974D01*
X603387Y31026D01*
X604000Y33315D01*
Y35685D01*
X603387Y37974D01*
X602202Y40026D01*
X600526Y41702D01*
X598474Y42887D01*
X596185Y43500D01*
D02*
G37*
G36*
X96185D02*
X93815D01*
X91526Y42887D01*
X89474Y41702D01*
X87798Y40026D01*
X86613Y37974D01*
X86000Y35685D01*
Y33315D01*
X86613Y31026D01*
X87798Y28974D01*
X89474Y27298D01*
X91526Y26113D01*
X93815Y25500D01*
X96185D01*
X98474Y26113D01*
X100526Y27298D01*
X102202Y28974D01*
X103387Y31026D01*
X104000Y33315D01*
Y35685D01*
X103387Y37974D01*
X102202Y40026D01*
X100526Y41702D01*
X98474Y42887D01*
X96185Y43500D01*
D02*
G37*
%LPD*%
D17*
X530000Y180000D02*
D03*
X170000Y179500D02*
D03*
X440000Y180000D02*
D03*
X260000Y179500D02*
D03*
X620000D02*
D03*
X350000D02*
D03*
X95000Y354500D02*
D03*
X185000Y355000D02*
D03*
X95000Y34500D02*
D03*
X685000Y35000D02*
D03*
X595000Y34500D02*
D03*
X685000Y354500D02*
D03*
D18*
X550000Y180000D02*
D03*
X190000Y179500D02*
D03*
X460000Y180000D02*
D03*
X280000Y179500D02*
D03*
X640000D02*
D03*
X370000D02*
D03*
X115000Y354500D02*
D03*
X205000Y355000D02*
D03*
X115000Y34500D02*
D03*
X705000Y35000D02*
D03*
X615000Y34500D02*
D03*
X705000Y354500D02*
D03*
D19*
X50000Y175000D02*
D03*
X300000Y350000D02*
D03*
X275000Y50000D02*
D03*
X385000D02*
D03*
X495000D02*
D03*
X750000Y225000D02*
D03*
X520000Y350000D02*
D03*
X410000D02*
D03*
D20*
X50000Y225000D02*
D03*
X750000Y175000D02*
D03*
D21*
X350000Y350000D02*
D03*
X225000Y50000D02*
D03*
X335000D02*
D03*
X445000D02*
D03*
X570000Y350000D02*
D03*
X460000D02*
D03*
D24*
X30000Y370000D02*
D03*
Y30000D02*
D03*
X770000Y370000D02*
D03*
Y30000D02*
D03*
M02*
