# Blender v2.92.0 OBJ File: 'concrete_plane.blend'
# www.blender.org
mtllib concrete_plane.mtl
o Cube.001
v -1.25000 -1.25000 -0.15
v -1.25000 -1.25000 0.15
v -1.25000 1.25000 0.15
v -1.25000 1.25000 -0.15
v 1.25000 1.25000 0.15
v 1.25000 1.25000 -0.15
v 1.25000 -1.25000 0.15
v 1.25000 -1.25000 -0.15
vt 0.047465 0.275606
vt -0.009981 0.240131
vt -0.009981 0.992995
vt 0.047465 0.950819
vt 0.993837 0.992995
vt 0.947750 0.950819
vt 0.993837 0.240131
vt 0.947750 0.275606
vn -1.0000 0.0000 0.0000
vn 0.0000 1.0000 0.0000
vn 1.0000 0.0000 0.0000
vn 0.0000 -1.0000 0.0000
vn 0.0000 0.0000 -1.0000
vn 0.0000 0.0000 1.0000
usemtl None.001
s 1
f 1/1/1 2/2/1 3/3/1 4/4/1
f 4/4/2 3/3/2 5/5/2 6/6/2
f 6/6/3 5/5/3 7/7/3 8/8/3
f 8/8/4 7/7/4 2/2/4 1/1/4
f 4/4/5 6/6/5 8/8/5 1/1/5
f 5/5/6 3/3/6 2/2/6 7/7/6
